<!-- Zhoplist App Icon - Concept 1: Modern Shopping List -->
<svg width="512" height="512" viewBox="0 0 512 512" xmlns="http://www.w3.org/2000/svg">
  <defs>
    <linearGradient id="bg1" x1="0%" y1="0%" x2="100%" y2="100%">
      <stop offset="0%" style="stop-color:#1e3a8a;stop-opacity:1" />
      <stop offset="100%" style="stop-color:#2563eb;stop-opacity:1" />
    </linearGradient>
    <linearGradient id="paper1" x1="0%" y1="0%" x2="100%" y2="100%">
      <stop offset="0%" style="stop-color:#ffffff;stop-opacity:0.95" />
      <stop offset="100%" style="stop-color:#f1f5f9;stop-opacity:0.9" />
    </linearGradient>
  </defs>

  <!-- Background Circle -->
  <circle cx="256" cy="256" r="240" fill="url(#bg1)" stroke="#1e40af" stroke-width="4"/>

  <!-- Shopping List Paper -->
  <rect x="180" y="120" width="152" height="200" rx="8" fill="url(#paper1)" stroke="#e2e8f0" stroke-width="2"/>

  <!-- Paper Hole -->
  <circle cx="206" cy="140" r="6" fill="#64748b"/>
  <circle cx="206" cy="165" r="6" fill="#64748b"/>
  <circle cx="206" cy="190" r="6" fill="#64748b"/>

  <!-- List Items (Checkmarks and Lines) -->
  <g stroke="#1e40af" stroke-width="3" fill="none">
    <!-- Checked item 1 -->
    <polyline points="190,152 198,160 215,145" stroke="#10b981" stroke-width="4"/>
    <line x1="225" y1="152" x2="310" y2="152" stroke="#94a3b8"/>

    <!-- Checked item 2 -->
    <polyline points="190,177 198,185 215,170" stroke="#10b981" stroke-width="4"/>
    <line x1="225" y1="177" x2="310" y2="177" stroke="#94a3b8"/>

    <!-- Unchecked item 3 -->
    <circle cx="198" cy="202" r="6" fill="none" stroke="#1e40af" stroke-width="2"/>
    <line x1="225" y1="202" x2="310" y2="202" stroke="#1e40af"/>

    <!-- Unchecked item 4 -->
    <circle cx="198" cy="227" r="6" fill="none" stroke="#1e40af" stroke-width="2"/>
    <line x1="225" y1="227" x2="280" y2="227" stroke="#1e40af"/>

    <!-- Unchecked item 5 -->
    <circle cx="198" cy="252" r="6" fill="none" stroke="#1e40af" stroke-width="2"/>
    <line x1="225" y1="252" x2="300" y2="252" stroke="#1e40af"/>
  </g>

  <!-- Shopping Cart Icon (bottom accent) -->
  <g transform="translate(280, 340)">
    <path d="M0 0h12l2 8h20l-2 8H8l-2-8H0z" fill="#ffffff" opacity="0.8"/>
    <circle cx="12" cy="20" r="3" fill="#ffffff" opacity="0.8"/>
    <circle cx="24" cy="20" r="3" fill="#ffffff" opacity="0.8"/>
  </g>
</svg>