<!-- Zhoplist App Icon - Concept 3: Minimalist Cart with List Items -->
<svg width="512" height="512" viewBox="0 0 512 512" xmlns="http://www.w3.org/2000/svg">
  <defs>
    <linearGradient id="bg3" x1="0%" y1="0%" x2="100%" y2="100%">
      <stop offset="0%" style="stop-color:#1e3a8a;stop-opacity:1" />
      <stop offset="100%" style="stop-color:#2563eb;stop-opacity:1" />
    </linearGradient>
    <linearGradient id="cart3" x1="0%" y1="0%" x2="100%" y2="100%">
      <stop offset="0%" style="stop-color:#ffffff;stop-opacity:0.95" />
      <stop offset="100%" style="stop-color:#f1f5f9;stop-opacity:0.9" />
    </linearGradient>
    <filter id="shadow3">
      <dropshadow dx="2" dy="2" stdDeviation="3" flood-color="#1e40af" flood-opacity="0.3"/>
    </filter>
  </defs>

  <!-- Background Circle -->
  <circle cx="256" cy="256" r="240" fill="url(#bg3)" stroke="#1d4ed8" stroke-width="4"/>

  <!-- Shopping Cart -->
  <g transform="translate(256, 280)" filter="url(#shadow3)">
    <!-- Cart Body -->
    <path d="M-60 -40 L-50 -40 L-30 40 L50 40 L60 -10 L-40 -10"
          fill="url(#cart3)" stroke="#1e40af" stroke-width="4" stroke-linejoin="round"/>

    <!-- Cart Handle -->
    <path d="M-60 -40 L-80 -40 Q-85 -40 -85 -35 L-85 -25 Q-85 -20 -80 -20 L-70 -20"
          fill="none" stroke="#1e40af" stroke-width="4" stroke-linecap="round"/>

    <!-- Cart Wheels -->
    <circle cx="-20" cy="60" r="8" fill="#1e40af"/>
    <circle cx="30" cy="60" r="8" fill="#1e40af"/>

    <!-- Cart Items/Products (geometric shapes) -->
    <rect x="-20" y="-5" width="15" height="20" rx="2" fill="#10b981" opacity="0.8"/>
    <rect x="5" y="-15" width="12" height="25" rx="2" fill="#f59e0b" opacity="0.8"/>
    <rect x="25" y="-8" width="18" height="15" rx="2" fill="#ef4444" opacity="0.8"/>
  </g>

  <!-- Floating List Elements -->
  <g opacity="0.8">
    <!-- List item 1 (top left) -->
    <g transform="translate(150, 180)">
      <circle cx="0" cy="0" r="8" fill="#10b981"/>
      <path d="M-3 0 L0 3 L6 -3" stroke="#ffffff" stroke-width="2" fill="none" stroke-linecap="round"/>
      <line x1="15" y1="0" x2="45" y2="0" stroke="#ffffff" stroke-width="3" stroke-linecap="round"/>
    </g>

    <!-- List item 2 (top right) -->
    <g transform="translate(330, 200)">
      <circle cx="0" cy="0" r="8" fill="#10b981"/>
      <path d="M-3 0 L0 3 L6 -3" stroke="#ffffff" stroke-width="2" fill="none" stroke-linecap="round"/>
      <line x1="15" y1="0" x2="40" y2="0" stroke="#ffffff" stroke-width="3" stroke-linecap="round"/>
    </g>

    <!-- List item 3 (bottom left) -->
    <g transform="translate(180, 380)">
      <circle cx="0" cy="0" r="8" fill="none" stroke="#ffffff" stroke-width="2"/>
      <line x1="15" y1="0" x2="50" y2="0" stroke="#ffffff" stroke-width="3" stroke-linecap="round"/>
    </g>

    <!-- List item 4 (bottom right) -->
    <g transform="translate(350, 350)">
      <circle cx="0" cy="0" r="8" fill="none" stroke="#ffffff" stroke-width="2"/>
      <line x1="15" y1="0" x2="35" y2="0" stroke="#ffffff" stroke-width="3" stroke-linecap="round"/>
    </g>
  </g>
</svg>