<svg xmlns="http://www.w3.org/2000/svg" viewBox="0 0 512 512" width="512" height="512">
  <defs>
    <linearGradient id="bgGradient" x1="0%" y1="0%" x2="100%" y2="100%">
      <stop offset="0%" style="stop-color:#4A90E2;stop-opacity:1" />
      <stop offset="100%" style="stop-color:#357ABD;stop-opacity:1" />
    </linearGradient>
    <linearGradient id="cartGradient" x1="0%" y1="0%" x2="100%" y2="100%">
      <stop offset="0%" style="stop-color:#FFFFFF;stop-opacity:1" />
      <stop offset="100%" style="stop-color:#F0F8FF;stop-opacity:1" />
    </linearGradient>
  </defs>

  <!-- Background circle with gradient -->
  <circle cx="256" cy="256" r="240" fill="url(#bgGradient)" stroke="#2E5A87" stroke-width="8"/>

  <!-- Shopping cart -->
  <g transform="translate(256, 256)">
    <!-- Cart body -->
    <path d="M-80 -60 L-80 -40 L-60 -40 L-40 60 L80 60 L80 40 L-20 40 L-40 -40 L80 -40 L80 -60 Z"
          fill="url(#cartGradient)" stroke="#E0E8F0" stroke-width="3"/>

    <!-- Cart handle -->
    <path d="M-100 -80 L-100 -20 L-80 -20"
          fill="none" stroke="url(#cartGradient)" stroke-width="8" stroke-linecap="round"/>

    <!-- Cart wheels -->
    <circle cx="-10" cy="80" r="12" fill="url(#cartGradient)" stroke="#E0E8F0" stroke-width="2"/>
    <circle cx="50" cy="80" r="12" fill="url(#cartGradient)" stroke="#E0E8F0" stroke-width="2"/>

    <!-- Items in cart (stylized packages) -->
    <rect x="-30" y="10" width="25" height="30" rx="3" fill="#E0E8F0" opacity="0.9"/>
    <rect x="10" y="0" width="25" height="35" rx="3" fill="#E0E8F0" opacity="0.8"/>
    <rect x="40" y="15" width="20" height="25" rx="3" fill="#E0E8F0" opacity="0.7"/>
  </g>

  <!-- Subtle shadow for depth -->
  <circle cx="256" cy="256" r="240" fill="none" stroke="rgba(0,0,0,0.1)" stroke-width="2"/>
</svg> 