<svg width="32" height="32" viewBox="0 0 512 512" xmlns="http://www.w3.org/2000/svg">
  <defs>
    <linearGradient id="bgGradient" x1="0%" y1="0%" x2="100%" y2="100%">
      <stop offset="0%" style="stop-color:#001122;stop-opacity:1" />
      <stop offset="100%" style="stop-color:#1e3a8a;stop-opacity:1" />
    </linearGradient>
    <linearGradient id="bagGradient" x1="0%" y1="0%" x2="100%" y2="100%">
      <stop offset="0%" style="stop-color:#ffffff;stop-opacity:1" />
      <stop offset="50%" style="stop-color:#f1f5f9;stop-opacity:1" />
      <stop offset="100%" style="stop-color:#e2e8f0;stop-opacity:1" />
    </linearGradient>
    <linearGradient id="handleGradient" x1="0%" y1="0%" x2="100%" y2="100%">
      <stop offset="0%" style="stop-color:#64748b;stop-opacity:1" />
      <stop offset="100%" style="stop-color:#475569;stop-opacity:1" />
    </linearGradient>
    <linearGradient id="checkGradient" x1="0%" y1="0%" x2="100%" y2="100%">
      <stop offset="0%" style="stop-color:#22c55e;stop-opacity:1" />
      <stop offset="100%" style="stop-color:#16a34a;stop-opacity:1" />
    </linearGradient>
  </defs>

  <!-- Background circle -->
  <circle cx="256" cy="256" r="240" fill="url(#bgGradient)" />

  <!-- Shopping bag body -->
  <path d="M160 200 L160 380 Q160 420 200 420 L312 420 Q352 420 352 380 L352 200 Z"
        fill="url(#bagGradient)"
        stroke="#cbd5e1"
        stroke-width="3"/>

  <!-- Shopping bag handles -->
  <path d="M200 200 Q200 160 230 160 Q260 160 260 200"
        fill="none"
        stroke="url(#handleGradient)"
        stroke-width="8"
        stroke-linecap="round"/>
  <path d="M252 200 Q252 160 282 160 Q312 160 312 200"
        fill="none"
        stroke="url(#handleGradient)"
        stroke-width="8"
        stroke-linecap="round"/>

  <!-- Large checkmark circle -->
  <circle cx="256" cy="320" r="60" fill="url(#checkGradient)" stroke="#16a34a" stroke-width="4"/>

  <!-- Checkmark -->
  <path d="M230 320 L248 338 L282 304"
        stroke="white"
        stroke-width="8"
        fill="none"
        stroke-linecap="round"
        stroke-linejoin="round"/>

</svg>