<svg xmlns="http://www.w3.org/2000/svg" viewBox="0 0 192 192" width="192" height="192">
  <defs>
    <linearGradient id="bgGradient" x1="0%" y1="0%" x2="100%" y2="100%">
      <stop offset="0%" style="stop-color:#4A90E2;stop-opacity:1" />
      <stop offset="100%" style="stop-color:#357ABD;stop-opacity:1" />
    </linearGradient>
    <linearGradient id="cartGradient" x1="0%" y1="0%" x2="100%" y2="100%">
      <stop offset="0%" style="stop-color:#FFFFFF;stop-opacity:1" />
      <stop offset="100%" style="stop-color:#F0F8FF;stop-opacity:1" />
    </linearGradient>
  </defs>

  <!-- Background circle with gradient -->
  <circle cx="96" cy="96" r="90" fill="url(#bgGradient)" stroke="#2E5A87" stroke-width="3"/>

  <!-- Shopping cart -->
  <g transform="translate(96, 96)">
    <!-- Cart body -->
    <path d="M-30 -22 L-30 -15 L-22 -15 L-15 22 L30 22 L30 15 L-7 15 L-15 -15 L30 -15 L30 -22 Z"
          fill="url(#cartGradient)" stroke="#E0E8F0" stroke-width="1"/>

    <!-- Cart handle -->
    <path d="M-37 -30 L-37 -7 L-30 -7"
          fill="none" stroke="url(#cartGradient)" stroke-width="3" stroke-linecap="round"/>

    <!-- Cart wheels -->
    <circle cx="-3" cy="30" r="4" fill="url(#cartGradient)" stroke="#E0E8F0" stroke-width="1"/>
    <circle cx="18" cy="30" r="4" fill="url(#cartGradient)" stroke="#E0E8F0" stroke-width="1"/>

    <!-- Items in cart -->
    <rect x="-11" y="3" width="9" height="11" rx="1" fill="#E0E8F0" opacity="0.9"/>
    <rect x="3" y="0" width="9" height="13" rx="1" fill="#E0E8F0" opacity="0.8"/>
    <rect x="15" y="5" width="7" height="9" rx="1" fill="#E0E8F0" opacity="0.7"/>
  </g>
</svg> 